<?xml version="1.0" encoding="UTF-8"?>
<svg width="1776px" height="1752px" viewBox="0 0 1776 1752" version="1.1" xmlns="http://www.w3.org/2000/svg" xmlns:xlink="http://www.w3.org/1999/xlink">
<rect width="100%" height="100%" fill="" />
    <title>Group</title>
    <g id="Page-1" stroke="none" stroke-width="1" fill="none" fill-rule="evenodd">
        <g id="Group">
            <rect id="cloud" fill="#2C06FD" fill-rule="nonzero" x="0" y="216.396825" width="1776" height="1296.32825" rx="648.164127"></rect>
            <path d="M1275.5,858 C1091.8811,858 986.214435,882.333333 958.5,931" id="Path-5" stroke="#BFFB77" stroke-width="3" transform="translate(1117, 894.5) scale(-1, -1) rotate(-90) translate(-1117, -894.5)"></path>
            <g id="stickana" transform="translate(36, 212)">
                <g id="s-3" transform="translate(519, 843)">
                    <path d="M0,0 L651,0 L651,384 L0,384 Z" id="Rectangle" stroke="#FFFFFF" fill="#008000" fill-rule="nonzero" stroke-dasharray="5,5"></path>
                    <text id="AWS-S-3-Bucket-Tags:" fill="#090000" fill-rule="nonzero" font-family="Verdana" font-size="36" font-weight="normal">
                        <tspan x="245.282227" y="36">AWS S-3</tspan>
                        <tspan x="264.099609" y="80">Bucket</tspan>
                        <tspan x="325.5" y="124"></tspan>
                        <tspan x="276.94043" y="168">Tags:</tspan>
                        <tspan x="175.417969" y="212"> Name: frontend</tspan>
                        <tspan x="325.5" y="256"></tspan>
                        <tspan x="176.446289" y="300">S3 Bucket Policy</tspan>
                    </text>
                    <g id="Icon-Service/16/Amazon-S3-On-Outposts_16" transform="translate(0.2245, 0.1024)" fill="#FFFFFF">
                        <path d="M92.4408982,46.41 C90.5940243,44.554875 81.7225494,41.0805 68.813873,41.0805 C55.9959202,41.0805 47.1568466,44.516625 45.2386898,46.378125 C47.1244453,48.137625 55.9375979,50.898 68.813873,50.898 C81.6836679,50.898 90.4903402,48.150375 92.4408982,46.41 L92.4408982,46.41 Z M91.6697474,53.8305 C85.0015606,56.450625 75.3589348,57.273 68.813873,57.273 C62.2752914,57.273 52.6456262,56.450625 46.0033604,53.9325 L51.1681271,91.207125 C51.6347057,92.341875 58.2834517,95.53575 68.8527546,95.53575 C79.4350179,95.53575 86.0837639,92.341875 86.5892241,90.984 L91.6697474,53.8305 Z M44.3638548,89.25 L38.5964241,47.685 L38.6482662,47.678625 C38.6029044,47.461875 38.5381018,46.990125 38.5251413,46.88175 C38.5121807,43.522125 41.2727712,40.933875 45.3618148,39.015 L45.3618148,7.643625 C45.3618148,6.942375 44.7850717,6.375 44.0722432,6.375 L7.7763111,6.375 C7.06348258,6.375 6.48025925,6.942375 6.48025925,7.643625 L6.48025925,87.981375 C6.48025925,88.67625 7.06348258,89.25 7.7763111,89.25 L44.3638548,89.25 Z M99.1479666,46.454625 C99.1479666,46.594875 99.135006,46.7415 99.1155653,46.88175 L99.0442824,47.43 C99.0183614,47.512875 98.9729996,47.589375 98.9470785,47.67225 L99.0442824,47.685 L92.9657992,92.06775 C91.5790237,98.889 79.4998205,101.91075 68.8527546,101.91075 C60.2340097,101.91075 50.7793115,99.889875 46.7356297,95.625 L39.3286934,95.625 L39.3286934,102 L32.8484341,102 L32.8484341,95.625 L19.4407778,95.625 L19.4407778,102 L12.9605185,102 L12.9605185,95.625 L7.7763111,95.625 C3.48637948,95.625 -2.66453526e-15,92.19525 -2.66453526e-15,87.981375 L-2.66453526e-15,7.643625 C-2.66453526e-15,3.42975 3.48637948,0 7.7763111,0 L44.0722432,0 C48.3556945,0 51.842074,3.42975 51.842074,7.643625 L51.842074,36.75825 C57.2725313,35.362125 63.5000604,34.7055 68.813873,34.7055 C81.411497,34.7055 99.1479666,38.345625 99.1479666,46.454625 L99.1479666,46.454625 Z M19.4407778,38.25 L32.4012963,38.25 L32.4012963,31.875 L19.4407778,31.875 L19.4407778,38.25 Z M19.4407778,25.5 L32.4012963,25.5 L32.4012963,19.125 L19.4407778,19.125 L19.4407778,25.5 Z" id="Fill-8"></path>
                    </g>
                </g>
                <g id="backend" transform="translate(559, 189)" fill-rule="nonzero">
                    <path d="M0,4 L524,4 L524,339 L0,339 Z" id="Rectangle" stroke="#FFFFFF" fill="#800080" stroke-dasharray="5,5"></path>
                    <text id="Backend_EC2_Server" fill="#0C1008" font-family="Verdana-Bold, Verdana" font-size="36" font-weight="bold">
                        <tspan x="17.4619141" y="36">AWS EC2 Flask-Backend </tspan>
                        <tspan x="147.047852" y="80">Ubu-Server</tspan>
                        <tspan x="262" y="124"></tspan>
                        <tspan x="136.445312" y="168" font-size="24">Team - Mobile-app</tspan>
                        <tspan x="154.304688" y="197" font-size="24">Type - database</tspan>
                        <tspan x="137.798828" y="226" font-size="24">Environment - dev</tspan>
                        <tspan x="262" y="255" font-size="24"></tspan>
                        <tspan x="200.330078" y="284" font-size="24">sg name:</tspan>
                        <tspan x="165.25" y="313" font-size="24">“database-sg”</tspan>
                        <tspan x="180.320312" y="342" font-size="24">ports 22/80</tspan>
                    </text>
                </g>
                <g id="AWS-eu-west-2" transform="translate(559, 0)" fill-rule="nonzero">
                    <path d="M0,0 L524,0 L524,132 L0,132 Z" id="Rectangle" stroke="#E4F545" fill="#1F1915" stroke-dasharray="5,5"></path>
                    <text id="Amazon-Web-Services" fill="#F7B500" font-family="Verdana" font-size="36" font-weight="normal">
                        <tspan x="76" y="36">Amazon Web Services</tspan>
                        <tspan x="76" y="80"></tspan>
                        <tspan x="76" y="124">	    EU-West-2</tspan>
                    </text>
                </g>
                <g id="database" transform="translate(0, 398)" fill-rule="nonzero">
                    <path d="M20,18 L378,18 L378,449 L20,449 Z" id="Rectangle" stroke="#FFFFFF" fill="#808080" stroke-dasharray="5,5"></path>
                    <text id="AWS-EC2-MySQL-Databa" fill="#000000" font-family="Verdana" font-size="15" font-weight="normal">
                        <tspan x="198.5" y="15"></tspan>
                        <tspan x="198.5" y="33">    </tspan>
                        <tspan x="107.155273" y="51" font-family="Verdana-Bold, Verdana" font-size="36" font-weight="bold">AWS EC2</tspan>
                        <tspan x="29.5830078" y="95" font-family="Verdana-Bold, Verdana" font-size="36" font-weight="bold">MySQL Database</tspan>
                        <tspan x="83.5478516" y="139" font-family="Verdana-Bold, Verdana" font-size="36" font-weight="bold">Ubu-Server</tspan>
                        <tspan x="198.5" y="183" font-family="Verdana-Bold, Verdana" font-size="36" font-weight="bold"></tspan>
                        <tspan x="72.9453125" y="227" font-family="Verdana-Bold, Verdana" font-size="24" font-weight="bold">Team - Mobile-app</tspan>
                        <tspan x="90.8046875" y="256" font-family="Verdana-Bold, Verdana" font-size="24" font-weight="bold">Type - database</tspan>
                        <tspan x="74.2988281" y="285" font-family="Verdana-Bold, Verdana" font-size="24" font-weight="bold">Environment - dev</tspan>
                        <tspan x="198.5" y="314" font-family="Verdana-Bold, Verdana" font-size="24" font-weight="bold"></tspan>
                        <tspan x="136.830078" y="343" font-family="Verdana-Bold, Verdana" font-size="24" font-weight="bold">sg name:</tspan>
                        <tspan x="101.75" y="372" font-family="Verdana-Bold, Verdana" font-size="24" font-weight="bold">“database-sg”</tspan>
                        <tspan x="115.267578" y="401" font-family="Verdana-Bold, Verdana" font-size="24" font-weight="bold">ports 22 ssh</tspan>
                        <tspan x="45.5117188" y="430" font-family="Verdana-Bold, Verdana" font-size="24" font-weight="bold">3306(backend ip only)</tspan>
                        <tspan x="351.488281" y="430" font-family="Verdana-Bold, Verdana" font-size="36" font-weight="bold"></tspan>
                        <tspan x="198.5" y="459" font-family="Verdana-Bold, Verdana" font-size="36" font-weight="bold"></tspan>
                        <tspan x="198.5" y="503" font-family="Verdana-Bold, Verdana" font-size="36" font-weight="bold"></tspan>
                    </text>
                </g>
                <g id="people" transform="translate(540, 1397)">
                    <ellipse id="Oval" fill="#FFFFFF" fill-rule="nonzero" cx="15.2830189" cy="34.6198347" rx="15.2830189" ry="14.6198347"></ellipse>
                    <line x1="15.2830189" y1="49.2396694" x2="15.2830189" y2="108.727273" id="Path" stroke="#FFFFFF" fill="#000000" fill-rule="nonzero"></line>
                    <line x1="15.2830189" y1="112.760331" x2="0" y2="142" id="Path" stroke="#FFFFFF" fill="#000000" fill-rule="nonzero"></line>
                    <line x1="15.2830189" y1="108.727273" x2="30.5660377" y2="137.966942" id="Path" stroke="#FFFFFF" fill="#000000" fill-rule="nonzero"></line>
                    <line x1="15.2830189" y1="64.3636364" x2="30.5660377" y2="93.6033058" id="male_arm" stroke="#FFFFFF" fill="#000000" fill-rule="nonzero"></line>
                    <ellipse id="Oval" fill="#FFFFFF" fill-rule="nonzero" cx="92.7169811" cy="35.6280992" rx="15.2830189" ry="14.6198347"></ellipse>
                    <line x1="92.7169811" y1="49.2396694" x2="92.7169811" y2="108.727273" id="Path" stroke="#FFFFFF" fill="#000000" fill-rule="nonzero"></line>
                    <line x1="92.7169811" y1="108.727273" x2="77.4339623" y2="137.966942" id="Path" stroke="#FFFFFF" fill="#000000" fill-rule="nonzero"></line>
                    <line x1="92.7169811" y1="108.727273" x2="108" y2="137.966942" id="Path" stroke="#FFFFFF" fill="#000000" fill-rule="nonzero"></line>
                    <polygon id="Path" fill="#FFFFFF" fill-rule="nonzero" points="77.4339623 64.3636364 108 64.3636364 92.7169811 108.727273"></polygon>
                    <line x1="92.7169811" y1="64.3636364" x2="108" y2="93.6033058" id="female_arm" stroke="#FFFFFF" fill="#000000" fill-rule="nonzero"></line>
                    <path d="M108,81 C216,81 275.666667,54 287,0" id="Path-2" stroke="#FFFFFF" stroke-width="3"></path>
                </g>
            </g>
            <g id="people" transform="translate(854, 0)" fill-rule="nonzero">
                <ellipse id="Oval" fill="#FFFFFF" cx="10.8962264" cy="14.7396694" rx="10.8962264" ry="14.7396694"></ellipse>
                <line x1="10.8962264" y1="29.4793388" x2="10.8962264" y2="89.4545455" id="Path" stroke="#FFFFFF" fill="#000000"></line>
                <line x1="10.8962264" y1="93.5206612" x2="0" y2="123" id="Path" stroke="#FFFFFF" fill="#000000"></line>
                <line x1="10.8962264" y1="89.4545455" x2="21.7924528" y2="118.933884" id="Path" stroke="#FFFFFF" fill="#000000"></line>
                <line x1="10.8962264" y1="44.7272727" x2="21.7924528" y2="74.2066116" id="male_arm" stroke="#FFFFFF" fill="#000000"></line>
            </g>
            <g id="Icon-Architecture-BG/64/Internet-of-Things" transform="translate(821, 1526)" fill="#7AA116">
                <rect id="Rectangle" x="0" y="0" width="80" height="80"></rect>
            </g>
            <path d="M881,1586 C879.346,1586 878,1584.654 878,1583 C878,1581.346 879.346,1580 881,1580 C882.654,1580 884,1581.346 884,1583 C884,1584.654 882.654,1586 881,1586 L881,1586 Z M849.912,1573 C847.012,1572.997 844.621,1570.891 844.469,1568.206 C844.462,1568.081 844.458,1567.953 844.458,1567.822 C844.458,1564.364 846.944,1563.203 848.462,1562.817 C848.924,1562.726 849.268,1562.317 849.268,1561.834 C849.268,1561.786 849.264,1561.737 849.257,1561.69 C849.221,1561.387 849.201,1561.08 849.201,1560.767 C849.201,1557.922 851.238,1554.86 853.838,1553.796 C858.374,1551.94 861.582,1554.378 862.752,1555.512 C863.703,1556.435 864.447,1557.616 864.961,1559.022 C865.087,1559.365 865.389,1559.612 865.75,1559.667 C866.108,1559.721 866.474,1559.576 866.695,1559.286 C867.401,1558.362 868.546,1557.974 869.601,1558.296 C870.873,1558.685 871.666,1559.957 871.775,1561.786 C871.803,1562.239 872.131,1562.617 872.576,1562.707 C875.815,1563.359 877.458,1565.098 877.458,1567.875 C877.458,1572.5 873.568,1573 871.896,1573 L849.912,1573 Z M863,1586 C863,1587.654 861.654,1589 860,1589 C858.346,1589 857,1587.654 857,1586 C857,1584.346 858.346,1583 860,1583 C861.654,1583 863,1584.346 863,1586 L863,1586 Z M841,1585 C839.346,1585 838,1583.654 838,1582 C838,1580.346 839.346,1579 841,1579 C842.654,1579 844,1580.346 844,1582 C844,1583.654 842.654,1585 841,1585 L841,1585 Z M840,1546 C840,1544.346 841.346,1543 843,1543 C844.654,1543 846,1544.346 846,1546 C846,1547.654 844.654,1549 843,1549 C841.346,1549 840,1547.654 840,1546 L840,1546 Z M876,1543 C877.654,1543 879,1544.346 879,1546 C879,1547.654 877.654,1549 876,1549 C874.346,1549 873,1547.654 873,1546 C873,1544.346 874.346,1543 876,1543 L876,1543 Z M881,1578 C880.329,1578 879.691,1578.137 879.106,1578.378 L876.131,1573.999 C878.047,1572.956 879.458,1571.028 879.458,1567.875 C879.458,1564.342 877.418,1561.892 873.692,1560.913 C873.424,1559.143 872.594,1557.751 871.361,1556.943 L874.456,1550.731 C874.945,1550.891 875.458,1551 876,1551 C878.757,1551 881,1548.757 881,1546 C881,1543.243 878.757,1541 876,1541 C873.243,1541 871,1543.243 871,1546 C871,1547.494 871.672,1548.822 872.715,1549.739 L869.479,1556.234 C868.343,1556.075 867.203,1556.341 866.256,1556.982 C865.695,1555.868 864.988,1554.895 864.145,1554.076 C861.119,1551.142 856.983,1550.346 853.08,1551.945 C852.023,1552.378 851.05,1553.051 850.211,1553.885 L846.664,1549.375 C847.486,1548.484 848,1547.305 848,1546 C848,1543.243 845.757,1541 843,1541 C840.243,1541 838,1543.243 838,1546 C838,1548.757 840.243,1551 843,1551 C843.73,1551 844.419,1550.834 845.045,1550.552 L848.909,1555.464 C847.844,1557.048 847.201,1558.924 847.201,1560.767 C847.201,1560.879 847.203,1560.993 847.207,1561.107 C844.216,1562.155 842.458,1564.612 842.458,1567.822 C842.458,1567.99 842.464,1568.154 842.473,1568.317 C842.622,1570.964 844.303,1573.202 846.674,1574.29 L843.338,1577.607 C842.637,1577.232 841.849,1577 841,1577 C838.243,1577 836,1579.243 836,1582 C836,1584.757 838.243,1587 841,1587 C843.757,1587 846,1584.757 846,1582 C846,1580.819 845.571,1579.747 844.884,1578.891 L848.873,1574.923 C849.213,1574.968 849.559,1575 849.911,1575 L861.137,1575 L859.676,1581.033 C857.072,1581.204 855,1583.354 855,1586 C855,1588.757 857.243,1591 860,1591 C862.757,1591 865,1588.757 865,1586 C865,1583.83 863.603,1581.998 861.666,1581.307 L863.194,1575 L871.896,1575 C872.669,1575 873.452,1574.91 874.208,1574.729 L877.445,1579.491 C876.554,1580.395 876,1581.633 876,1583 C876,1585.757 878.243,1588 881,1588 C883.757,1588 886,1585.757 886,1583 C886,1580.243 883.757,1578 881,1578 L881,1578 Z" id="AWS-IoT-1-Click_Icon_64_Squid" fill="#FFFFFF"></path>
            <line x1="861" y1="1526" x2="863" y2="1436" id="Path-4" stroke="#F8EEEE" stroke-width="4"></line>
            <g id="Icon-Architecture-BG/64/Security-Identity-Compliance" transform="translate(213, 545)" fill="#DD344C">
                <rect id="Rectangle" x="0" y="0" width="80" height="80"></rect>
            </g>
            <polygon id="Path" fill="#FFFFFF" points="264.996894 597.496331 271.996894 597.496331 271.996894 595.496331 264.996894 595.496331"></polygon>
            <polygon id="Path" fill="#FFFFFF" points="255.996894 597.496331 262.996894 597.496331 262.996894 595.496331 255.996894 595.496331"></polygon>
            <polygon id="Path" fill="#FFFFFF" points="246.996894 597.496331 253.996894 597.496331 253.996894 595.496331 246.996894 595.496331"></polygon>
            <path d="M257.996894,589.496331 C257.996894,588.393331 258.894894,587.496331 259.996894,587.496331 C261.099894,587.496331 261.996894,588.393331 261.996894,589.496331 C261.996894,590.599331 261.099894,591.496331 259.996894,591.496331 C258.894894,591.496331 257.996894,590.599331 257.996894,589.496331 L257.996894,589.496331 Z" id="Path" fill="#FFFFFF"></path>
            <path d="M263.996894,589.496331 C263.996894,587.290331 262.203894,585.496331 259.996894,585.496331 C257.790894,585.496331 255.996894,587.290331 255.996894,589.496331 C255.996894,591.702331 257.790894,593.496331 259.996894,593.496331 C262.203894,593.496331 263.996894,591.702331 263.996894,589.496331 L263.996894,589.496331 Z" id="Path" fill="#FFFFFF"></path>
            <path d="M249.996894,587.496331 C251.099894,587.496331 251.996894,588.393331 251.996894,589.496331 C251.996894,590.599331 251.099894,591.496331 249.996894,591.496331 C248.894894,591.496331 247.996894,590.599331 247.996894,589.496331 C247.996894,588.393331 248.894894,587.496331 249.996894,587.496331 L249.996894,587.496331 Z" id="Path" fill="#FFFFFF"></path>
            <path d="M249.996894,593.496331 C252.203894,593.496331 253.996894,591.702331 253.996894,589.496331 C253.996894,587.290331 252.203894,585.496331 249.996894,585.496331 C247.790894,585.496331 245.996894,587.290331 245.996894,589.496331 C245.996894,591.702331 247.790894,593.496331 249.996894,593.496331 L249.996894,593.496331 Z" id="Path" fill="#FFFFFF"></path>
            <path d="M278.996894,578.496331 L278.996894,601.496331 C278.996894,602.048331 278.549894,602.496331 277.996894,602.496331 L246.996894,602.496331 L246.996894,600.496331 L276.996894,600.496331 L276.996894,579.496331 L254.996894,579.496331 L254.996894,577.496331 L277.996894,577.496331 C278.549894,577.496331 278.996894,577.944331 278.996894,578.496331 L278.996894,578.496331 Z" id="Path" fill="#FFFFFF"></path>
            <path d="M243.695894,583.543331 C243.279894,583.674331 242.996894,584.060331 242.996894,584.496331 L242.996894,605.536331 L240.597894,607.593331 L237.996894,604.620331 L237.996894,601.996331 C237.996894,601.731331 237.891894,601.476331 237.703894,601.289331 L235.411894,598.996331 L237.703894,596.703331 C237.891894,596.516331 237.996894,596.261331 237.996894,595.996331 L237.996894,593.996331 C237.996894,593.731331 237.891894,593.476331 237.703894,593.289331 L235.411894,590.996331 L237.703894,588.703331 C237.891894,588.516331 237.996894,588.261331 237.996894,587.996331 L237.996894,584.506331 C237.996894,584.070331 237.714894,583.684331 237.298894,583.553331 C232.156894,581.923331 229.116894,576.634331 230.229894,571.249331 C231.031894,567.369331 234.015894,564.258331 237.830894,563.323331 C241.079894,562.526331 244.411894,563.223331 246.971894,565.230331 C249.529894,567.237331 250.996894,570.250331 250.996894,573.496331 C250.996894,578.049331 247.994894,582.181331 243.695894,583.543331 L243.695894,583.543331 Z" id="Path" fill="#FFFFFF"></path>
            <path d="M252.996894,573.496331 C252.996894,569.632331 251.250894,566.045331 248.205894,563.656331 C245.160894,561.267331 241.208894,560.436331 237.354894,561.381331 C232.793894,562.498331 229.228894,566.213331 228.270894,570.844331 L228.270894,570.845331 C227.000894,576.990331 230.299894,583.034331 235.996894,585.215331 L235.996894,587.582331 L233.289894,590.289331 C232.899894,590.680331 232.899894,591.312331 233.289894,591.703331 L235.996894,594.410331 L235.996894,595.582331 L233.289894,598.289331 C232.899894,598.680331 232.899894,599.312331 233.289894,599.703331 L235.996894,602.410331 L235.996894,604.996331 C235.996894,605.238331 236.084894,605.472331 236.244894,605.655331 L239.744894,609.655331 C239.942894,609.880331 240.218894,609.996331 240.496894,609.996331 C240.727894,609.996331 240.958894,609.917331 241.147894,609.755331 L244.647894,606.755331 C244.869894,606.565331 244.996894,606.288331 244.996894,605.996331 L244.996894,585.204331 C249.742894,583.372331 252.996894,578.662331 252.996894,573.496331 L252.996894,573.496331 Z" id="Path" fill="#FFFFFF"></path>
            <path d="M240.496894,575.866331 C239.118894,575.866331 237.996894,574.745331 237.996894,573.366331 C237.996894,571.988331 239.118894,570.866331 240.496894,570.866331 C241.875894,570.866331 242.996894,571.988331 242.996894,573.366331 C242.996894,574.745331 241.875894,575.866331 240.496894,575.866331 L240.496894,575.866331 Z" id="Path" fill="#FFFFFF"></path>
            <path d="M240.496894,568.866331 C238.015894,568.866331 235.996894,570.885331 235.996894,573.366331 C235.996894,575.848331 238.015894,577.866331 240.496894,577.866331 C242.978894,577.866331 244.996894,575.848331 244.996894,573.366331 C244.996894,570.885331 242.978894,568.866331 240.496894,568.866331 L240.496894,568.866331 Z" id="Path" fill="#FFFFFF"></path>
            <path d="M595,496.193684 C422.880448,496.193684 317.547114,513.193684 279,547.193684" id="Path-5" stroke="#BFFB77" stroke-width="3"></path>
            <g id="Icon-Architecture-BG/64/Security-Identity-Compliance" transform="translate(515, 456)" fill="#DD344C">
                <rect id="Rectangle" x="0" y="0" width="80" height="80"></rect>
            </g>
            <path d="M566.996894,508.496331 L573.996894,508.496331 L573.996894,506.496331 L566.996894,506.496331 L566.996894,508.496331 Z M557.996894,508.496331 L564.996894,508.496331 L564.996894,506.496331 L557.996894,506.496331 L557.996894,508.496331 Z M548.996894,508.496331 L555.996894,508.496331 L555.996894,506.496331 L548.996894,506.496331 L548.996894,508.496331 Z M559.996894,500.496331 C559.996894,499.393331 560.894894,498.496331 561.996894,498.496331 C563.099894,498.496331 563.996894,499.393331 563.996894,500.496331 C563.996894,501.599331 563.099894,502.496331 561.996894,502.496331 C560.894894,502.496331 559.996894,501.599331 559.996894,500.496331 L559.996894,500.496331 Z M565.996894,500.496331 C565.996894,498.290331 564.203894,496.496331 561.996894,496.496331 C559.790894,496.496331 557.996894,498.290331 557.996894,500.496331 C557.996894,502.702331 559.790894,504.496331 561.996894,504.496331 C564.203894,504.496331 565.996894,502.702331 565.996894,500.496331 L565.996894,500.496331 Z M551.996894,498.496331 C553.099894,498.496331 553.996894,499.393331 553.996894,500.496331 C553.996894,501.599331 553.099894,502.496331 551.996894,502.496331 C550.894894,502.496331 549.996894,501.599331 549.996894,500.496331 C549.996894,499.393331 550.894894,498.496331 551.996894,498.496331 L551.996894,498.496331 Z M551.996894,504.496331 C554.203894,504.496331 555.996894,502.702331 555.996894,500.496331 C555.996894,498.290331 554.203894,496.496331 551.996894,496.496331 C549.790894,496.496331 547.996894,498.290331 547.996894,500.496331 C547.996894,502.702331 549.790894,504.496331 551.996894,504.496331 L551.996894,504.496331 Z M580.996894,489.496331 L580.996894,512.496331 C580.996894,513.048331 580.549894,513.496331 579.996894,513.496331 L548.996894,513.496331 L548.996894,511.496331 L578.996894,511.496331 L578.996894,490.496331 L556.996894,490.496331 L556.996894,488.496331 L579.996894,488.496331 C580.549894,488.496331 580.996894,488.944331 580.996894,489.496331 L580.996894,489.496331 Z M545.695894,494.543331 C545.279894,494.674331 544.996894,495.060331 544.996894,495.496331 L544.996894,516.536331 L542.597894,518.593331 L539.996894,515.620331 L539.996894,512.996331 C539.996894,512.731331 539.891894,512.476331 539.703894,512.289331 L537.411894,509.996331 L539.703894,507.703331 C539.891894,507.516331 539.996894,507.261331 539.996894,506.996331 L539.996894,504.996331 C539.996894,504.731331 539.891894,504.476331 539.703894,504.289331 L537.411894,501.996331 L539.703894,499.703331 C539.891894,499.516331 539.996894,499.261331 539.996894,498.996331 L539.996894,495.506331 C539.996894,495.070331 539.714894,494.684331 539.298894,494.553331 C534.156894,492.923331 531.116894,487.634331 532.229894,482.249331 C533.031894,478.369331 536.015894,475.258331 539.830894,474.323331 C543.079894,473.526331 546.411894,474.223331 548.971894,476.230331 C551.529894,478.237331 552.996894,481.250331 552.996894,484.496331 C552.996894,489.049331 549.994894,493.181331 545.695894,494.543331 L545.695894,494.543331 Z M554.996894,484.496331 C554.996894,480.632331 553.250894,477.045331 550.205894,474.656331 C547.160894,472.267331 543.208894,471.436331 539.354894,472.381331 C534.793894,473.498331 531.228894,477.213331 530.270894,481.844331 L530.270894,481.845331 C529.000894,487.990331 532.299894,494.034331 537.996894,496.215331 L537.996894,498.582331 L535.289894,501.289331 C534.899894,501.680331 534.899894,502.312331 535.289894,502.703331 L537.996894,505.410331 L537.996894,506.582331 L535.289894,509.289331 C534.899894,509.680331 534.899894,510.312331 535.289894,510.703331 L537.996894,513.410331 L537.996894,515.996331 C537.996894,516.238331 538.084894,516.472331 538.244894,516.655331 L541.744894,520.655331 C541.942894,520.880331 542.218894,520.996331 542.496894,520.996331 C542.727894,520.996331 542.958894,520.917331 543.147894,520.755331 L546.647894,517.755331 C546.869894,517.565331 546.996894,517.288331 546.996894,516.996331 L546.996894,496.204331 C551.742894,494.372331 554.996894,489.662331 554.996894,484.496331 L554.996894,484.496331 Z M542.496894,486.866331 C541.118894,486.866331 539.996894,485.745331 539.996894,484.366331 C539.996894,482.988331 541.118894,481.866331 542.496894,481.866331 C543.875894,481.866331 544.996894,482.988331 544.996894,484.366331 C544.996894,485.745331 543.875894,486.866331 542.496894,486.866331 L542.496894,486.866331 Z M542.496894,479.866331 C540.015894,479.866331 537.996894,481.885331 537.996894,484.366331 C537.996894,486.848331 540.015894,488.866331 542.496894,488.866331 C544.978894,488.866331 546.996894,486.848331 546.996894,484.366331 C546.996894,481.885331 544.978894,479.866331 542.496894,479.866331 L542.496894,479.866331 Z" id="AWS-Key-Management-Service_Icon_64_Squid" fill="#FFFFFF"></path>
            <g id="Icon-Architecture-BG/64/Security-Identity-Compliance" transform="translate(1119, 1052)" fill="#DD344C">
                <rect id="Rectangle" x="0" y="0" width="80" height="80"></rect>
            </g>
            <polygon id="Path" fill="#FFFFFF" points="1170.99689 1104.49633 1177.99689 1104.49633 1177.99689 1102.49633 1170.99689 1102.49633"></polygon>
            <polygon id="Path" fill="#FFFFFF" points="1161.99689 1104.49633 1168.99689 1104.49633 1168.99689 1102.49633 1161.99689 1102.49633"></polygon>
            <polygon id="Path" fill="#FFFFFF" points="1152.99689 1104.49633 1159.99689 1104.49633 1159.99689 1102.49633 1152.99689 1102.49633"></polygon>
            <path d="M1163.99689,1100.49633 C1163.99689,1099.39333 1164.89489,1098.49633 1165.99689,1098.49633 C1167.09989,1098.49633 1167.99689,1099.39333 1167.99689,1100.49633 C1167.99689,1101.59933 1167.09989,1102.49633 1165.99689,1102.49633 C1164.89489,1102.49633 1163.99689,1101.59933 1163.99689,1100.49633 L1163.99689,1100.49633 Z" id="Path" fill="#FFFFFF"></path>
            <path d="M1155.99689,1094.49633 C1157.09989,1094.49633 1157.99689,1095.39333 1157.99689,1096.49633 C1157.99689,1097.59933 1157.09989,1098.49633 1155.99689,1098.49633 C1154.89489,1098.49633 1153.99689,1097.59933 1153.99689,1096.49633 C1153.99689,1095.39333 1154.89489,1094.49633 1155.99689,1094.49633 L1155.99689,1094.49633 Z" id="Path" fill="#FFFFFF"></path>
            <path d="M1155.99689,1100.49633 C1158.20389,1100.49633 1159.99689,1098.70233 1159.99689,1096.49633 C1159.99689,1094.29033 1158.20389,1092.49633 1155.99689,1092.49633 C1153.79089,1092.49633 1151.99689,1094.29033 1151.99689,1096.49633 C1151.99689,1098.70233 1153.79089,1100.49633 1155.99689,1100.49633 L1155.99689,1100.49633 Z" id="Path" fill="#FFFFFF"></path>
            <path d="M1184.99689,1085.49633 L1184.99689,1108.49633 C1184.99689,1109.04833 1184.54989,1109.49633 1183.99689,1109.49633 L1152.99689,1109.49633 L1152.99689,1107.49633 L1182.99689,1107.49633 L1182.99689,1086.49633 L1160.99689,1086.49633 L1160.99689,1084.49633 L1183.99689,1084.49633 C1184.54989,1084.49633 1184.99689,1084.94433 1184.99689,1085.49633 L1184.99689,1085.49633 Z" id="Path" fill="#FFFFFF"></path>
            <path d="M1149.69589,1104.54333 C1149.27989,1104.67433 1148.99689,1105.06033 1148.99689,1105.49633 L1148.99689,1126.53633 L1146.59789,1128.59333 L1143.99689,1125.62033 L1143.99689,1122.99633 C1143.99689,1122.73133 1143.89189,1122.47633 1143.70389,1122.28933 L1141.41189,1119.99633 L1143.70389,1117.70333 C1143.89189,1117.51633 1143.99689,1117.26133 1143.99689,1116.99633 L1143.99689,1114.99633 C1143.99689,1114.73133 1143.89189,1114.47633 1143.70389,1114.28933 L1141.41189,1111.99633 L1143.70389,1109.70333 C1143.89189,1109.51633 1143.99689,1109.26133 1143.99689,1108.99633 L1143.99689,1105.50633 C1143.99689,1105.07033 1143.71489,1104.68433 1143.29889,1104.55333 C1138.15689,1102.92333 1135.11689,1097.63433 1136.22989,1092.24933 C1137.03189,1088.36933 1140.01589,1085.25833 1143.83089,1084.32333 C1147.07989,1083.52633 1150.41189,1084.22333 1152.97189,1086.23033 C1155.52989,1088.23733 1156.99689,1091.25033 1156.99689,1094.49633 C1156.99689,1099.04933 1153.99489,1103.18133 1149.69589,1104.54333 L1149.69589,1104.54333 Z" id="Path" fill="#FFFFFF"></path>
            <path d="M1158.99689,1080.49633 C1158.99689,1076.63233 1157.25089,1073.04533 1154.20589,1070.65633 C1151.16089,1068.26733 1147.20889,1067.43633 1143.35489,1068.38133 C1138.79389,1069.49833 1135.22889,1073.21333 1134.27089,1077.84433 L1134.27089,1077.84533 C1133.00089,1083.99033 1136.29989,1090.03433 1141.99689,1092.21533 L1141.99689,1094.58233 L1139.28989,1097.28933 C1138.89989,1097.68033 1138.89989,1098.31233 1139.28989,1098.70333 L1141.99689,1101.41033 L1141.99689,1102.58233 L1139.28989,1105.28933 C1138.89989,1105.68033 1138.89989,1106.31233 1139.28989,1106.70333 L1141.99689,1109.41033 L1141.99689,1111.99633 C1141.99689,1112.23833 1142.08489,1112.47233 1142.24489,1112.65533 L1145.74489,1116.65533 C1145.94289,1116.88033 1146.21889,1116.99633 1146.49689,1116.99633 C1146.72789,1116.99633 1146.95889,1116.91733 1147.14789,1116.75533 L1150.64789,1113.75533 C1150.86989,1113.56533 1150.99689,1113.28833 1150.99689,1112.99633 L1150.99689,1092.20433 C1155.74289,1090.37233 1158.99689,1085.66233 1158.99689,1080.49633 L1158.99689,1080.49633 Z" id="Path" fill="#FFFFFF"></path>
            <path d="M1146.49689,1082.86633 C1145.11889,1082.86633 1143.99689,1081.74533 1143.99689,1080.36633 C1143.99689,1078.98833 1145.11889,1077.86633 1146.49689,1077.86633 C1147.87589,1077.86633 1148.99689,1078.98833 1148.99689,1080.36633 C1148.99689,1081.74533 1147.87589,1082.86633 1146.49689,1082.86633 L1146.49689,1082.86633 Z" id="Path" fill="#FFFFFF"></path>
            <path d="M1146.49689,1075.86633 C1144.01589,1075.86633 1141.99689,1077.88533 1141.99689,1080.36633 C1141.99689,1082.84833 1144.01589,1084.86633 1146.49689,1084.86633 C1148.97889,1084.86633 1150.99689,1082.84833 1150.99689,1080.36633 C1150.99689,1077.88533 1148.97889,1075.86633 1146.49689,1075.86633 L1146.49689,1075.86633 Z" id="Path" fill="#FFFFFF"></path>
            <g id="Icon-Architecture-BG/64/Security-Identity-Compliance" transform="translate(821, 126)" fill="#DD344C">
                <rect id="Rectangle" x="0" y="0" width="80" height="80"></rect>
            </g>
            <path d="M888.438,188.324548 L873.56,173.446548 C873.251,173.138548 873.178,172.665548 873.379,172.279548 C875.457,168.276548 874.659,163.231548 871.439,160.011548 C869.143,157.715548 865.972,156.624548 862.748,157.012548 C859.518,157.403548 856.67,159.267548 854.936,162.128548 C852.898,165.487548 852.989,169.796548 855.166,173.107548 C858.187,177.702548 864.076,179.291548 868.864,176.808548 C869.251,176.608548 869.722,176.680548 870.032,176.989548 L872.5,179.457548 C872.687,179.644548 872.792,179.899548 872.792,180.164548 L872.792,183.407548 L876.035,183.407548 C876.299,183.407548 876.554,183.512548 876.742,183.699548 L878.157,185.113548 C878.344,185.301548 878.45,185.555548 878.45,185.821548 L878.45,189.063548 L881.692,189.063548 C881.958,189.063548 882.211,189.169548 882.399,189.356548 L884.254,191.212548 L888.196,191.475548 L888.438,188.324548 Z M890.467,188.019548 L890.114,192.615548 C890.074,193.139548 889.636,193.538548 889.118,193.538548 C889.095,193.538548 889.073,193.538548 889.05,193.536548 L883.747,193.182548 C883.504,193.166548 883.277,193.063548 883.106,192.892548 L881.278,191.063548 L877.45,191.063548 C876.897,191.063548 876.45,190.616548 876.45,190.063548 L876.45,186.235548 L875.621,185.407548 L871.792,185.407548 C871.24,185.407548 870.792,184.959548 870.792,184.407548 L870.792,180.578548 L869.12,178.905548 C863.546,181.391548 856.941,179.449548 853.494,174.206548 C850.896,170.254548 850.791,165.106548 853.225,161.091548 C855.281,157.701548 858.665,155.491548 862.507,155.027548 C866.349,154.565548 870.12,155.864548 872.853,158.597548 C876.506,162.250548 877.536,167.883548 875.475,172.533548 L890.177,187.235548 C890.383,187.442548 890.49,187.728548 890.467,188.019548 L890.467,188.019548 Z M866.423,167.345548 C866.423,166.677548 866.163,166.049548 865.69,165.577548 C865.217,165.104548 864.589,164.844548 863.922,164.844548 C863.255,164.844548 862.627,165.104548 862.155,165.576548 C861.18,166.551548 861.18,168.137548 862.155,169.112548 C863.129,170.087548 864.715,170.087548 865.69,169.112548 L865.69,169.112548 C866.163,168.639548 866.423,168.012548 866.423,167.345548 L866.423,167.345548 Z M867.104,164.162548 C867.955,165.012548 868.423,166.142548 868.423,167.345548 C868.423,168.546548 867.955,169.676548 867.104,170.526548 L867.104,170.527548 C866.227,171.404548 865.075,171.842548 863.922,171.842548 C862.77,171.842548 861.618,171.404548 860.741,170.526548 C858.987,168.771548 858.987,165.916548 860.741,164.162548 C861.59,163.312548 862.72,162.844548 863.922,162.844548 C865.125,162.844548 866.254,163.312548 867.104,164.162548 L867.104,164.162548 Z M843.001,170.921548 L849,170.921548 L849,172.921548 L843,172.921548 C837.146,172.908548 832.326,168.756548 832.024,163.467548 C832.011,163.217548 832,162.986548 832,162.754548 C832,156.230548 836.627,153.805548 839.351,152.944548 C839.333,152.656548 839.324,152.365548 839.324,152.069548 C839.324,146.719548 843.081,141.181548 848.063,139.188548 C853.87,136.844548 860.028,138.010548 864.526,142.306548 C865.713,143.426548 867.231,145.100548 868.295,147.141548 C869.431,146.143548 870.714,145.654548 872.183,145.654548 C875.086,145.654548 878.34,147.990548 878.931,153.096548 C884.95,154.471548 888,157.774548 888,162.921548 C888,168.348548 884.778,171.989548 879.161,172.908548 L878.838,170.934548 C882.105,170.400548 886,168.575548 886,162.921548 C886,158.540548 883.397,155.992548 877.808,154.903548 C877.361,154.815548 877.029,154.436548 877.001,153.981548 C876.777,150.256548 874.795,147.654548 872.183,147.654548 C870.848,147.654548 869.801,148.234548 868.789,149.535548 C868.566,149.821548 868.209,149.963548 867.848,149.910548 C867.491,149.855548 867.19,149.611548 867.063,149.272548 C866.191,146.942548 864.454,144.987548 863.15,143.757548 C859.231,140.015548 853.872,139.003548 848.808,141.044548 C844.61,142.723548 841.324,147.566548 841.324,152.069548 C841.324,152.574548 841.354,153.060548 841.417,153.554548 C841.421,153.591548 841.423,153.629548 841.424,153.667548 L841.424,153.669548 L841.424,153.671548 L841.424,153.673548 L841.424,153.675548 L841.424,153.675548 L841.424,153.677548 L841.424,153.677548 L841.424,153.678548 L841.424,153.679548 L841.424,153.681548 C841.424,154.186548 841.05,154.608548 840.564,154.677548 C838.065,155.311548 834,157.197548 834,162.754548 C834,162.951548 834.01,163.148548 834.02,163.337548 C834.262,167.586548 838.208,170.911548 843.001,170.921548 L843.001,170.921548 Z" id="AWS-IAM-Identity-Center_Icon_64_Squid" fill="#FFFFFF"></path>
            <g id="Icon-Architecture-BG/64/Security-Identity-Compliance" transform="translate(1034, 652)" fill="#DD344C">
                <rect id="Rectangle" x="0" y="0" width="80" height="80"></rect>
            </g>
            <polygon id="Path" fill="#FFFFFF" points="1085.99689 704.496331 1092.99689 704.496331 1092.99689 702.496331 1085.99689 702.496331"></polygon>
            <polygon id="Path" fill="#FFFFFF" points="1076.99689 704.496331 1083.99689 704.496331 1083.99689 702.496331 1076.99689 702.496331"></polygon>
            <polygon id="Path" fill="#FFFFFF" points="1067.99689 704.496331 1074.99689 704.496331 1074.99689 702.496331 1067.99689 702.496331"></polygon>
            <path d="M1078.99689,696.496331 C1078.99689,695.393331 1079.89489,694.496331 1080.99689,694.496331 C1082.09989,694.496331 1082.99689,695.393331 1082.99689,696.496331 C1082.99689,697.599331 1082.09989,698.496331 1080.99689,698.496331 C1079.89489,698.496331 1078.99689,697.599331 1078.99689,696.496331 L1078.99689,696.496331 Z" id="Path" fill="#FFFFFF"></path>
            <path d="M1084.99689,696.496331 C1084.99689,694.290331 1083.20389,692.496331 1080.99689,692.496331 C1078.79089,692.496331 1076.99689,694.290331 1076.99689,696.496331 C1076.99689,698.702331 1078.79089,700.496331 1080.99689,700.496331 C1083.20389,700.496331 1084.99689,698.702331 1084.99689,696.496331 L1084.99689,696.496331 Z" id="Path" fill="#FFFFFF"></path>
            <path d="M1070.99689,694.496331 C1072.09989,694.496331 1072.99689,695.393331 1072.99689,696.496331 C1072.99689,697.599331 1072.09989,698.496331 1070.99689,698.496331 C1069.89489,698.496331 1068.99689,697.599331 1068.99689,696.496331 C1068.99689,695.393331 1069.89489,694.496331 1070.99689,694.496331 L1070.99689,694.496331 Z" id="Path" fill="#FFFFFF"></path>
            <path d="M1070.99689,700.496331 C1073.20389,700.496331 1074.99689,698.702331 1074.99689,696.496331 C1074.99689,694.290331 1073.20389,692.496331 1070.99689,692.496331 C1068.79089,692.496331 1066.99689,694.290331 1066.99689,696.496331 C1066.99689,698.702331 1068.79089,700.496331 1070.99689,700.496331 L1070.99689,700.496331 Z" id="Path" fill="#FFFFFF"></path>
            <path d="M1099.99689,685.496331 L1099.99689,708.496331 C1099.99689,709.048331 1099.54989,709.496331 1098.99689,709.496331 L1067.99689,709.496331 L1067.99689,707.496331 L1097.99689,707.496331 L1097.99689,686.496331 L1075.99689,686.496331 L1075.99689,684.496331 L1098.99689,684.496331 C1099.54989,684.496331 1099.99689,684.944331 1099.99689,685.496331 L1099.99689,685.496331 Z" id="Path" fill="#FFFFFF"></path>
            <path d="M1064.69589,690.543331 C1064.27989,690.674331 1063.99689,691.060331 1063.99689,691.496331 L1063.99689,712.536331 L1061.59789,714.593331 L1058.99689,711.620331 L1058.99689,708.996331 C1058.99689,708.731331 1058.89189,708.476331 1058.70389,708.289331 L1056.41189,705.996331 L1058.70389,703.703331 C1058.89189,703.516331 1058.99689,703.261331 1058.99689,702.996331 L1058.99689,700.996331 C1058.99689,700.731331 1058.89189,700.476331 1058.70389,700.289331 L1056.41189,697.996331 L1058.70389,695.703331 C1058.89189,695.516331 1058.99689,695.261331 1058.99689,694.996331 L1058.99689,691.506331 C1058.99689,691.070331 1058.71489,690.684331 1058.29889,690.553331 C1053.15689,688.923331 1050.11689,683.634331 1051.22989,678.249331 C1052.03189,674.369331 1055.01589,671.258331 1058.83089,670.323331 C1062.07989,669.526331 1065.41189,670.223331 1067.97189,672.230331 C1070.52989,674.237331 1071.99689,677.250331 1071.99689,680.496331 C1071.99689,685.049331 1068.99489,689.181331 1064.69589,690.543331 L1064.69589,690.543331 Z" id="Path" fill="#FFFFFF"></path>
            <path d="M1073.99689,680.496331 C1073.99689,676.632331 1072.25089,673.045331 1069.20589,670.656331 C1066.16089,668.267331 1062.20889,667.436331 1058.35489,668.381331 C1053.79389,669.498331 1050.22889,673.213331 1049.27089,677.844331 L1049.27089,677.845331 C1048.00089,683.990331 1051.29989,690.034331 1056.99689,692.215331 L1056.99689,694.582331 L1054.28989,697.289331 C1053.89989,697.680331 1053.89989,698.312331 1054.28989,698.703331 L1056.99689,701.410331 L1056.99689,702.582331 L1054.28989,705.289331 C1053.89989,705.680331 1053.89989,706.312331 1054.28989,706.703331 L1056.99689,709.410331 L1056.99689,711.996331 C1056.99689,712.238331 1057.08489,712.472331 1057.24489,712.655331 L1060.74489,716.655331 C1060.94289,716.880331 1061.21889,716.996331 1061.49689,716.996331 C1061.72789,716.996331 1061.95889,716.917331 1062.14789,716.755331 L1065.64789,713.755331 C1065.86989,713.565331 1065.99689,713.288331 1065.99689,712.996331 L1065.99689,692.204331 C1070.74289,690.372331 1073.99689,685.662331 1073.99689,680.496331 L1073.99689,680.496331 Z" id="Path" fill="#FFFFFF"></path>
            <path d="M1061.49689,682.866331 C1060.11889,682.866331 1058.99689,681.745331 1058.99689,680.366331 C1058.99689,678.988331 1060.11889,677.866331 1061.49689,677.866331 C1062.87589,677.866331 1063.99689,678.988331 1063.99689,680.366331 C1063.99689,681.745331 1062.87589,682.866331 1061.49689,682.866331 L1061.49689,682.866331 Z" id="Path" fill="#FFFFFF"></path>
            <path d="M1061.49689,675.866331 C1059.01589,675.866331 1056.99689,677.885331 1056.99689,680.366331 C1056.99689,682.848331 1059.01589,684.866331 1061.49689,684.866331 C1063.97889,684.866331 1065.99689,682.848331 1065.99689,680.366331 C1065.99689,677.885331 1063.97889,675.866331 1061.49689,675.866331 L1061.49689,675.866331 Z" id="Path" fill="#FFFFFF"></path>
        </g>
    </g>
</svg>